<svg data-v-423bf9ae="" xmlns="http://www.w3.org/2000/svg" viewBox="0 0 501 90" class="iconLeft"><!----><!----><!----><g data-v-423bf9ae="" id="3dd07637-ba18-4e37-9f0b-94155065beb6" fill="black" transform="matrix(6.276150978224502,0,0,6.276150978224502,111.21333512977805,-34.14226263433984)"><path d="M0.77 14.90L0.77 14.90Q2.14 15.32 3.58 15.32L3.58 15.32L3.58 15.32Q4.31 15.32 4.83 15.23L4.83 15.23L4.83 14.03L3.56 13.92L3.56 13.92Q2.42 13.82 1.77 13.53L1.77 13.53L1.77 13.53Q1.12 13.24 0.83 12.71L0.83 12.71L0.83 12.71Q0.55 12.17 0.55 11.26L0.55 11.26L0.55 11.26Q0.55 10.12 0.86 9.46L0.86 9.46L0.86 9.46Q1.18 8.81 1.89 8.51L1.89 8.51L1.89 8.51Q2.60 8.22 3.84 8.22L3.84 8.22L3.84 8.22Q5.46 8.22 7.01 8.60L7.01 8.60L6.71 10.57L6.71 10.57Q5.99 10.43 5.47 10.37L5.47 10.37L5.47 10.37Q4.94 10.30 4.37 10.30L4.37 10.30L4.37 10.30Q3.65 10.30 3.19 10.37L3.19 10.37L3.19 11.58L4.34 11.68L4.34 11.68Q6.02 11.83 6.75 12.48L6.75 12.48L6.75 12.48Q7.48 13.13 7.48 14.49L7.48 14.49L7.48 14.49Q7.48 16.02 6.63 16.70L6.63 16.70L6.63 16.70Q5.78 17.39 3.88 17.39L3.88 17.39L3.88 17.39Q2.02 17.39 0.42 16.93L0.42 16.93L0.77 14.90ZM11.42 17.37L11.42 17.37Q10.35 17.37 9.68 17.00L9.68 17.00L9.68 17.00Q9.02 16.63 8.71 15.82L8.71 15.82L8.71 15.82Q8.40 15.01 8.40 13.68L8.40 13.68L8.40 13.68Q8.40 12.35 8.71 11.54L8.71 11.54L8.71 11.54Q9.02 10.72 9.67 10.35L9.67 10.35L9.67 10.35Q10.33 9.98 11.42 9.98L11.42 9.98L11.42 9.98Q12.04 9.98 12.74 10.07L12.74 10.07L12.74 10.07Q13.44 10.15 13.79 10.26L13.79 10.26L13.58 12.00L13.58 12.00Q12.89 11.80 12.05 11.80L12.05 11.80L12.05 11.80Q11.49 11.80 11.26 12.05L11.26 12.05L11.26 12.05Q11.03 12.29 11.03 12.87L11.03 12.87L11.03 15.47L11.03 15.47Q11.37 15.55 11.93 15.55L11.93 15.55L11.93 15.55Q12.82 15.55 13.72 15.19L13.72 15.19L13.94 16.91L13.94 16.91Q12.81 17.37 11.42 17.37L11.42 17.37ZM18.19 9.98L18.19 9.98Q19.80 9.98 20.52 10.54L20.52 10.54L20.52 10.54Q21.25 11.09 21.25 12.32L21.25 12.32L21.25 17.18L20.03 17.18L19.42 16.48L19.42 16.48Q18.35 17.37 17.01 17.37L17.01 17.37L17.01 17.37Q15.76 17.37 15.20 16.82L15.20 16.82L15.20 16.82Q14.63 16.27 14.63 15.06L14.63 15.06L14.63 15.06Q14.63 14.17 14.97 13.68L14.97 13.68L14.97 13.68Q15.32 13.19 16.13 12.98L16.13 12.98L16.13 12.98Q16.94 12.77 18.42 12.77L18.42 12.77L18.79 12.77L18.79 11.89L18.79 11.89Q18.49 11.80 17.92 11.80L17.92 11.80L17.92 11.80Q16.66 11.80 15.25 12.17L15.25 12.17L14.95 10.44L14.95 10.44Q16.41 9.98 18.19 9.98L18.19 9.98ZM17.79 15.68L17.79 15.68Q18.37 15.68 18.58 15.55L18.58 15.55L18.58 15.55Q18.79 15.43 18.79 15.08L18.79 15.08L18.79 14.06L17.91 14.06L17.91 14.06Q17.33 14.06 17.12 14.19L17.12 14.19L17.12 14.19Q16.90 14.32 16.90 14.69L16.90 14.69L16.90 15.68L17.79 15.68ZM26.85 9.97L26.85 9.97Q27.90 9.97 28.53 10.34L28.53 10.34L28.53 10.34Q29.16 10.71 29.46 11.52L29.46 11.52L29.46 11.52Q29.75 12.33 29.75 13.68L29.75 13.68L29.75 13.68Q29.75 15.02 29.41 15.83L29.41 15.83L29.41 15.83Q29.06 16.63 28.33 17.00L28.33 17.00L28.33 17.00Q27.59 17.37 26.36 17.37L26.36 17.37L26.36 17.37Q25.34 17.37 24.53 17.25L24.53 17.25L24.53 17.25Q23.72 17.12 22.86 16.84L22.86 16.84L22.86 8.02L25.33 7.83L25.33 10.23L25.33 10.23Q25.91 9.97 26.85 9.97L26.85 9.97ZM27.10 15.13L27.10 11.84L25.90 11.84L25.90 11.84Q25.56 11.84 25.45 11.92L25.45 11.92L25.45 11.92Q25.33 12.00 25.33 12.22L25.33 12.22L25.33 15.50L26.54 15.50L26.54 15.50Q26.87 15.50 26.98 15.42L26.98 15.42L26.98 15.42Q27.10 15.34 27.10 15.13L27.10 15.13ZM34.52 15.55L34.52 15.55Q35.71 15.55 37.00 15.19L37.00 15.19L37.31 16.91L37.31 16.91Q35.92 17.37 34.26 17.37L34.26 17.37L34.26 17.37Q32.41 17.37 31.60 16.51L31.60 16.51L31.60 16.51Q30.79 15.65 30.79 13.68L30.79 13.68L30.79 13.68Q30.79 11.72 31.62 10.85L31.62 10.85L31.62 10.85Q32.45 9.98 34.31 9.98L34.31 9.98L34.31 9.98Q35.56 9.98 36.24 10.19L36.24 10.19L36.24 10.19Q36.92 10.40 37.20 10.89L37.20 10.89L37.20 10.89Q37.49 11.38 37.49 12.29L37.49 12.29L37.49 12.29Q37.49 13.19 37.13 13.68L37.13 13.68L37.13 13.68Q36.76 14.17 35.90 14.38L35.90 14.38L35.90 14.38Q35.03 14.59 33.43 14.59L33.43 14.59L33.43 15.47L33.43 15.47Q33.82 15.55 34.52 15.55L34.52 15.55ZM34.44 11.80L34.44 11.80Q33.87 11.80 33.65 11.93L33.65 11.93L33.65 11.93Q33.43 12.05 33.43 12.40L33.43 12.40L33.43 13.30L34.26 13.30L34.26 13.30Q34.83 13.30 35.05 13.17L35.05 13.17L35.05 13.17Q35.27 13.03 35.27 12.67L35.27 12.67L35.27 11.80L34.44 11.80ZM41.43 15.41L41.43 15.41Q41.79 15.47 42.10 15.50L42.10 15.50L41.99 17.16L41.99 17.16Q41.22 17.37 40.59 17.37L40.59 17.37L40.59 17.37Q39.76 17.37 39.36 17.03L39.36 17.03L39.36 17.03Q38.96 16.69 38.96 15.96L38.96 15.96L38.96 8.08L41.43 7.87L41.43 15.41ZM49.78 10.18L49.78 17.18L48.57 17.18L47.95 16.48L47.95 16.48Q46.76 17.37 45.16 17.37L45.16 17.37L45.16 17.37Q44.10 17.37 43.61 16.92L43.61 16.92L43.61 16.92Q43.12 16.46 43.12 15.47L43.12 15.47L43.12 10.18L45.58 10.18L45.58 15.68L46.62 15.68L46.62 15.68Q47.01 15.68 47.17 15.57L47.17 15.57L47.17 15.57Q47.32 15.46 47.32 15.19L47.32 15.19L47.32 10.18L49.78 10.18ZM59.96 9.98L59.96 9.98Q60.94 9.98 61.49 10.38L61.49 10.38L61.49 10.38Q62.03 10.78 62.03 11.49L62.03 11.49L62.03 17.18L59.57 17.18L59.57 12.01L58.67 12.01L58.67 12.01Q58.28 12.01 58.13 12.12L58.13 12.12L58.13 12.12Q57.97 12.24 57.97 12.50L57.97 12.50L57.97 17.18L55.51 17.18L55.51 12.01L54.61 12.01L54.61 12.01Q54.22 12.01 54.07 12.12L54.07 12.12L54.07 12.12Q53.91 12.24 53.91 12.50L53.91 12.50L53.91 17.18L51.45 17.18L51.45 10.18L52.67 10.18L53.30 10.88L53.30 10.88Q54.47 9.98 55.90 9.98L55.90 9.98L55.90 9.98Q56.53 9.98 56.99 10.15L56.99 10.15L56.99 10.15Q57.46 10.32 57.69 10.64L57.69 10.64L57.69 10.64Q58.76 9.98 59.96 9.98L59.96 9.98Z"></path></g><!----><g data-v-423bf9ae="" id="d17d417e-cbb5-4169-b8e8-f8d4c27d5b1e" transform="matrix(2.0025169643003404,0,0,2.0025169643003404,-0.4259171262092636,-2.5489651527951125)" stroke="none" fill="black"><path d="M.5 11c.3 7.5.7 15 1 22.5.2 4.4-1.5 8.7 3.5 9.2 7.7.7 15.7.2 23.4.2h11.4c1.4 0 4.4.7 5.6-.5 1.1-1.1.9-3.8 1.1-5.3.4-3.6.7-7.3.8-11 .1-3.7.1-7.3-.1-11-.1-2 .1-4.1-1.2-5.6-.8-1-4.5-.4-5.4-.4-4.4-.1-9-.1-13.6 0-8.5.1-17-.1-25.4.8-.8.1-.8 1.3 0 1.3 11.6-1.3 23.6-.9 35.2-.9 2.4 0 8.7-1.1 9.2 2.9.3 3 .3 6.2.3 9.2 0 2.6.2 19-2.6 19.2-11.1.8-22.5.1-33.6 0-1.9 0-6.8.7-7-2.5-.1-3.1-.3-6.2-.4-9.4-.4-6.2-.7-12.5-.9-18.7-.1-.8-1.3-.8-1.3 0z"></path><path d="M6.5 14.9c.2 3.9.3 7.8.5 11.7.1 3.2-.2 6.8.4 9.9.8 3.7 8.8 1.8 11.3 1.8 2.5-.1 11.9.8 13.6-2.1 1-1.7.2-5 .2-6.8V16.2c0-.3-.2-.5-.5-.6-3.1-1-6.2-.9-9.5-.9-5.2 0-10.4-.1-15.5-.3-.8 0-.8 1.2 0 1.3 6.3.3 12.6.3 19 .3 5 0 5.2 1.4 5.2 5.9v11.3c0 5.3-16.2 3.9-19.9 3.9-4.8 0-3.6-18.8-3.7-22.2.1-.8-1.1-.8-1.1 0zM10.4 3.6c2.9 1 4.7 6.3 8.2 6.3 1.3 0 2.4-1.3 3.3-2 1.9-1.5 3.5-3.4 5-5.3.5-.6-.4-1.5-.9-.8-1.8 2.3-5.9 8.1-9.1 5.9-2.2-1.5-3.7-4.4-6.2-5.3-.8-.2-1.1 1-.3 1.2zM37.1 26.3c1.8 0 3.6-.1 5.3-.1.8 0 .8-1.3 0-1.3-1.8 0-3.6.1-5.3.1-.8.1-.8 1.3 0 1.3zM36.8 29.8c2.3.3 4.7.4 7 .3.8 0 .8-1.3 0-1.3-2.2.1-4.5.1-6.7-.3-.7-.1-1.1 1.2-.3 1.3zM37.7 34.3c1.5 0 3.1.1 4.6.1.8 0 .8-1.2 0-1.3-1.5 0-3.1-.1-4.6-.1-.8.1-.8 1.3 0 1.3zM38.4 15.6c2.4 0 3.1 3.8.9 4.7-2.2.8-3-4-1-4.7.7-.3.4-1.5-.3-1.2-3.3 1.2-2.4 7.9 1.4 7.2 3.9-.7 3-7.1-.9-7.2-.9-.1-.9 1.1-.1 1.2zM39.6 42.8c0 .6-.1 1.2-.1 1.8v.4c.1.4 0 .5-.3.2-.4-.1-.7-.1-1.1-.2-.7-.1-1.2-.1-1.6-.8-.4-.6-.5-1.3-.4-2 .1-.8-1.2-.8-1.3 0-.1 1 .2 2 .7 2.9.6 1 1.5 1 2.5 1.2.7.1 2 .5 2.4-.3.2-.3.2-.7.2-1 0-.7.1-1.4.1-2.1.2-.9-1-.9-1.1-.1zM13.3 42.6v1.5c0 .3.1 1 0 1.1.1-.1.2-.2.4-.3-.8.2-1.9 0-2.7-.1-.4 0-.2-.1-.3-.6 0-.5-.1-1-.1-1.5-.1-.8-1.3-.8-1.3 0 0 .5.1 1 .1 1.5 0 .4 0 .9.2 1.3.5.8 1.7.6 2.5.6.7 0 1.9.3 2.3-.4.2-.4.1-1 .1-1.4v-1.8c0-.7-1.2-.7-1.2.1z"></path></g><!----></svg>